<?xml version="1.0" encoding="utf-8"?>
<!-- Generator: Adobe Illustrator 16.0.0, SVG Export Plug-In . SVG Version: 6.00 Build 0)  -->
<!DOCTYPE svg PUBLIC "-//W3C//DTD SVG 1.1//EN" "http://www.w3.org/Graphics/SVG/1.1/DTD/svg11.dtd">
<svg version="1.1"
	 id="svg2" xmlns:dc="http://purl.org/dc/elements/1.1/" xmlns:cc="http://creativecommons.org/ns#" xmlns:rdf="http://www.w3.org/1999/02/22-rdf-syntax-ns#" xmlns:svg="http://www.w3.org/2000/svg" xmlns:sodipodi="http://sodipodi.sourceforge.net/DTD/sodipodi-0.dtd" xmlns:inkscape="http://www.inkscape.org/namespaces/inkscape" sodipodi:docname="Aiga_rightarrow.svg" inkscape:version="0.48.4 r9939"
	 xmlns="http://www.w3.org/2000/svg" xmlns:xlink="http://www.w3.org/1999/xlink" x="0px" y="0px" width="14px" height="14px"
	 viewBox="0 0 14 14" enable-background="new 0 0 14 14" xml:space="preserve">
<sodipodi:namedview  inkscape:cy="10.020211" inkscape:cx="26.073186" inkscape:zoom="10.680141" showgrid="false" guidetolerance="10" gridtolerance="10" objecttolerance="10" bordercolor="#666666" pagecolor="#ffffff" borderopacity="1" id="namedview6" inkscape:current-layer="svg2" inkscape:window-maximized="1" inkscape:window-y="-8" inkscape:window-x="-8" inkscape:window-height="706" inkscape:window-width="1366" inkscape:pageshadow="2" inkscape:pageopacity="0">
	</sodipodi:namedview>
<g id="polygon4">
	<polygon fill="#65C2E3" points="5.389,11.344 10.056,7.669 0.375,7.669 0.279,7.625 0.25,7.566 0.25,6.447 0.297,6.374 
		0.389,6.332 10.056,6.332 5.443,2.7 5.535,2.656 8.08,2.656 13.596,7 8.08,11.344 	"/>
	<path fill="#5CACE0" d="M7.994,2.906L13.191,7l-5.197,4.094H6.111l3.533-2.782l1.134-0.893H9.334H0.5V6.582h8.833h1.443
		L9.644,5.688L6.109,2.906H7.994 M8.167,2.406H5.479L5.213,2.533L5.14,2.779l4.194,3.302h-9L0.125,6.178L0,6.375v1.25l0.094,0.189
		l0.281,0.104h8.959l-4.304,3.39l0.054,0.155l0.208,0.13h2.875L14,7L8.167,2.406L8.167,2.406z"/>
</g>
</svg>
