<?xml version="1.0" encoding="utf-8"?>
<!-- Generator: Adobe Illustrator 16.0.0, SVG Export Plug-In . SVG Version: 6.00 Build 0)  -->
<!DOCTYPE svg PUBLIC "-//W3C//DTD SVG 1.1//EN" "http://www.w3.org/Graphics/SVG/1.1/DTD/svg11.dtd">
<svg version="1.1"
	 id="svg2" xmlns:dc="http://purl.org/dc/elements/1.1/" xmlns:cc="http://creativecommons.org/ns#" xmlns:rdf="http://www.w3.org/1999/02/22-rdf-syntax-ns#" xmlns:svg="http://www.w3.org/2000/svg" xmlns:sodipodi="http://sodipodi.sourceforge.net/DTD/sodipodi-0.dtd" xmlns:inkscape="http://www.inkscape.org/namespaces/inkscape" sodipodi:docname="New document 1" inkscape:version="0.48.4 r9939"
	 xmlns="http://www.w3.org/2000/svg" xmlns:xlink="http://www.w3.org/1999/xlink" x="0px" y="0px" width="14px" height="14px"
	 viewBox="0 0 14 14" enable-background="new 0 0 14 14" xml:space="preserve">
<sodipodi:namedview  showgrid="false" inkscape:cy="10.762175" inkscape:cx="2.7919075" inkscape:zoom="37.071429" borderopacity="1.0" bordercolor="#666666" pagecolor="#ffffff" id="base" inkscape:window-maximized="1" inkscape:window-y="-8" inkscape:current-layer="layer1" inkscape:document-units="px" inkscape:pageopacity="0.0" inkscape:window-x="-8" inkscape:window-height="706" inkscape:window-width="1366" inkscape:pageshadow="2">
	</sodipodi:namedview>
<g id="layer1" transform="translate(0,-1038.3622)" inkscape:label="Layer 1" inkscape:groupmode="layer">
	
		<path id="path2989" sodipodi:ry="7.0134873" sodipodi:rx="7.0269752" sodipodi:cy="7.0134873" sodipodi:cx="7" sodipodi:type="arc" fill="#0071BC" stroke="#0071BC" d="
		M11.196,1045.362c0,2.332-1.891,4.224-4.223,4.224s-4.223-1.892-4.223-4.224c0-2.333,1.891-4.223,4.223-4.223
		S11.196,1043.03,11.196,1045.362z"/>
	<path id="path2991" inkscape:connector-curvature="0" fill="#0071BC" stroke="#0071BC" stroke-width="0.027" d="M6.542,1049.26
		c-0.521-0.054-1.105-0.249-1.564-0.522c-1.028-0.613-1.702-1.622-1.888-2.827c-0.043-0.276-0.043-0.825,0-1.099
		c0.088-0.573,0.296-1.128,0.593-1.581c0.624-0.954,1.597-1.577,2.737-1.751c0.277-0.042,0.825-0.042,1.1,0
		c0.704,0.109,1.313,0.366,1.85,0.78c1.487,1.149,1.949,3.202,1.099,4.877c-0.203,0.4-0.443,0.722-0.785,1.052
		c-0.631,0.61-1.421,0.978-2.312,1.074C7.184,1049.283,6.75,1049.281,6.542,1049.26L6.542,1049.26z"/>
</g>
</svg>
