<?xml version="1.0" encoding="utf-8"?>
<!-- Generator: Adobe Illustrator 16.0.0, SVG Export Plug-In . SVG Version: 6.00 Build 0)  -->
<!DOCTYPE svg PUBLIC "-//W3C//DTD SVG 1.1//EN" "http://www.w3.org/Graphics/SVG/1.1/DTD/svg11.dtd">
<svg version="1.1"
	 id="svg2" xmlns:dc="http://purl.org/dc/elements/1.1/" xmlns:cc="http://creativecommons.org/ns#" xmlns:rdf="http://www.w3.org/1999/02/22-rdf-syntax-ns#" xmlns:svg="http://www.w3.org/2000/svg" xmlns:sodipodi="http://sodipodi.sourceforge.net/DTD/sodipodi-0.dtd" xmlns:inkscape="http://www.inkscape.org/namespaces/inkscape" sodipodi:docname="New document 1" inkscape:version="0.48.4 r9939"
	 xmlns="http://www.w3.org/2000/svg" xmlns:xlink="http://www.w3.org/1999/xlink" x="0px" y="0px" width="9.445px" height="9.447px"
	 viewBox="0 0 9.445 9.447" enable-background="new 0 0 9.445 9.447" xml:space="preserve">
<sodipodi:namedview  inkscape:cy="10.762175" inkscape:cx="2.7919075" inkscape:zoom="37.071429" showgrid="false" bordercolor="#666666" pagecolor="#ffffff" borderopacity="1.0" id="base" inkscape:document-units="px" inkscape:current-layer="layer1" inkscape:window-maximized="1" inkscape:window-y="-8" inkscape:window-x="-8" inkscape:window-height="706" inkscape:window-width="1366" inkscape:pageshadow="2" inkscape:pageopacity="0.0">
	</sodipodi:namedview>
<g id="layer1" transform="translate(0,-1038.3622)" inkscape:label="Layer 1" inkscape:groupmode="layer">
	
		<path id="path2989" sodipodi:cy="7.0134873" sodipodi:cx="7" sodipodi:type="arc" sodipodi:ry="7.0134873" sodipodi:rx="7.0269752" fill="#0071BC" stroke="#0071BC" d="
		M8.948,1043.086c0,2.333-1.891,4.225-4.222,4.225c-2.332,0-4.224-1.893-4.224-4.225c0-2.333,1.892-4.224,4.224-4.224
		S8.948,1040.754,8.948,1043.086z"/>
	<path id="path2991" inkscape:connector-curvature="0" fill="#0071BC" stroke="#0071BC" stroke-width="0.027" d="M4.295,1046.984
		c-0.521-0.055-1.104-0.25-1.563-0.521c-1.028-0.613-1.702-1.623-1.889-2.828c-0.043-0.276-0.043-0.825,0-1.099
		c0.089-0.572,0.296-1.128,0.594-1.581c0.624-0.954,1.597-1.577,2.736-1.751c0.277-0.042,0.825-0.042,1.101,0
		c0.705,0.109,1.313,0.366,1.851,0.78c1.487,1.149,1.948,3.202,1.1,4.877c-0.203,0.398-0.443,0.721-0.785,1.051
		c-0.631,0.611-1.42,0.979-2.313,1.074C4.937,1047.006,4.503,1047.004,4.295,1046.984L4.295,1046.984z"/>
</g>
</svg>
